<?xml version="1.0" encoding="UTF-8" standalone="no"?>
<!DOCTYPE svg PUBLIC "-//W3C//DTD SVG 1.1//EN"
 "http://www.w3.org/Graphics/SVG/1.1/DTD/svg11.dtd">
<!-- Generated by graphviz version 2.43.0 (0)
 -->
<!-- Title: %3 Pages: 1 -->
<svg width="874pt" height="156pt"
 viewBox="0.00 0.00 874.09 156.00" xmlns="http://www.w3.org/2000/svg" xmlns:xlink="http://www.w3.org/1999/xlink">
<g id="graph0" class="graph" transform="scale(1 1) rotate(0) translate(4 152)">
<title>%3</title>
<polygon fill="white" stroke="transparent" points="-4,4 -4,-152 870.09,-152 870.09,4 -4,4"/>
<g id="clust1" class="cluster">
<title>cluster_client</title>
<polygon fill="none" stroke="black" points="8,-16 8,-109 467.01,-109 467.01,-16 8,-16"/>
<text text-anchor="middle" x="237.51" y="-93.8" font-family="Times,serif" font-size="14.00">Client</text>
</g>
<g id="clust2" class="cluster">
<title>cluster_remote_host</title>
<polygon fill="none" stroke="black" points="488.01,-8 488.01,-140 858.09,-140 858.09,-8 488.01,-8"/>
<text text-anchor="middle" x="673.05" y="-124.8" font-family="Times,serif" font-size="14.00">Remote Host</text>
</g>
<g id="clust3" class="cluster">
<title>cluster_python</title>
<polygon fill="none" stroke="black" stroke-dasharray="1,5" points="579.01,-16 579.01,-109 850.09,-109 850.09,-16 579.01,-16"/>
<text text-anchor="middle" x="714.55" y="-93.8" font-family="Times,serif" font-size="14.00">Python</text>
</g>
<!-- socat_client -->
<g id="node1" class="node">
<title>socat_client</title>
<ellipse fill="none" stroke="black" cx="315.42" cy="-51" rx="28.7" ry="18"/>
<text text-anchor="middle" x="315.42" y="-47.3" font-family="Times,serif" font-size="14.00">socat</text>
</g>
<!-- ssh host -->
<g id="node3" class="node">
<title>ssh host</title>
<ellipse fill="none" stroke="black" cx="420.01" cy="-51" rx="38.99" ry="18"/>
<text text-anchor="middle" x="420.01" y="-47.3" font-family="Times,serif" font-size="14.00">ssh host</text>
</g>
<!-- socat_client&#45;&gt;ssh host -->
<g id="edge2" class="edge">
<title>socat_client&#45;&gt;ssh host</title>
<path fill="none" stroke="black" d="M354.38,-51C359.64,-51 365.1,-51 370.52,-51"/>
<polygon fill="black" stroke="black" points="354.18,-47.5 344.18,-51 354.18,-54.5 354.18,-47.5"/>
<polygon fill="black" stroke="black" points="370.83,-54.5 380.83,-51 370.83,-47.5 370.83,-54.5"/>
</g>
<!-- Node\ncp&#45;remote -->
<g id="node2" class="node">
<title>Node\ncp&#45;remote</title>
<ellipse fill="none" stroke="black" cx="66.91" cy="-51" rx="50.82" ry="26.74"/>
<text text-anchor="middle" x="66.91" y="-54.8" font-family="Times,serif" font-size="14.00">Node</text>
<text text-anchor="middle" x="66.91" y="-39.8" font-family="Times,serif" font-size="14.00">cp&#45;remote</text>
</g>
<!-- Node\ncp&#45;remote&#45;&gt;socat_client -->
<g id="edge1" class="edge">
<title>Node\ncp&#45;remote&#45;&gt;socat_client</title>
<path fill="none" stroke="black" d="M128.23,-51C174.52,-51 237.01,-51 276.51,-51"/>
<polygon fill="black" stroke="black" points="128.09,-47.5 118.09,-51 128.09,-54.5 128.09,-47.5"/>
<polygon fill="black" stroke="black" points="276.52,-54.5 286.52,-51 276.52,-47.5 276.52,-54.5"/>
<text text-anchor="middle" x="202.32" y="-54.8" font-family="Times,serif" font-size="14.00">NODE_CHANNEL_FD</text>
</g>
<!-- sshd -->
<g id="node6" class="node">
<title>sshd</title>
<ellipse fill="none" stroke="black" cx="523.01" cy="-51" rx="27" ry="18"/>
<text text-anchor="middle" x="523.01" y="-47.3" font-family="Times,serif" font-size="14.00">sshd</text>
</g>
<!-- ssh host&#45;&gt;sshd -->
<g id="edge5" class="edge">
<title>ssh host&#45;&gt;sshd</title>
<path fill="none" stroke="black" d="M469.35,-51C474.75,-51 480.17,-51 485.39,-51"/>
<polygon fill="black" stroke="black" points="469.2,-47.5 459.2,-51 469.2,-54.5 469.2,-47.5"/>
<polygon fill="black" stroke="black" points="485.71,-54.5 495.71,-51 485.71,-47.5 485.71,-54.5"/>
</g>
<!-- socat_remote -->
<g id="node4" class="node">
<title>socat_remote</title>
<ellipse fill="none" stroke="black" cx="615.61" cy="-51" rx="28.7" ry="18"/>
<text text-anchor="middle" x="615.61" y="-47.3" font-family="Times,serif" font-size="14.00">socat</text>
</g>
<!-- Node\nsub.js -->
<g id="node5" class="node">
<title>Node\nsub.js</title>
<ellipse fill="none" stroke="black" cx="808.15" cy="-51" rx="33.88" ry="26.74"/>
<text text-anchor="middle" x="808.15" y="-54.8" font-family="Times,serif" font-size="14.00">Node</text>
<text text-anchor="middle" x="808.15" y="-39.8" font-family="Times,serif" font-size="14.00">sub.js</text>
</g>
<!-- socat_remote&#45;&gt;Node\nsub.js -->
<g id="edge3" class="edge">
<title>socat_remote&#45;&gt;Node\nsub.js</title>
<path fill="none" stroke="black" d="M654.58,-51C686.06,-51 730.83,-51 763.73,-51"/>
<polygon fill="black" stroke="black" points="654.31,-47.5 644.31,-51 654.31,-54.5 654.31,-47.5"/>
<polygon fill="black" stroke="black" points="763.96,-54.5 773.96,-51 763.96,-47.5 763.96,-54.5"/>
<text text-anchor="middle" x="709.21" y="-54.8" font-family="Times,serif" font-size="14.00"> &#160;&#160;&#160;&#160;socketpair &#160;&#160;&#160;&#160;</text>
<text text-anchor="middle" x="695.17" y="-33.41" font-family="Times,serif" font-size="14.00">NODE_CHANNEL_FD</text>
</g>
<!-- sshd&#45;&gt;socat_remote -->
<g id="edge4" class="edge">
<title>sshd&#45;&gt;socat_remote</title>
<path fill="none" stroke="black" d="M560.31,-51C565.7,-51 571.28,-51 576.71,-51"/>
<polygon fill="black" stroke="black" points="560.22,-47.5 550.22,-51 560.22,-54.5 560.22,-47.5"/>
<polygon fill="black" stroke="black" points="576.88,-54.5 586.88,-51 576.88,-47.5 576.88,-54.5"/>
</g>
</g>
</svg>
