<?xml version="1.0" encoding="UTF-8" standalone="no"?>
<!DOCTYPE svg PUBLIC "-//W3C//DTD SVG 1.1//EN"
 "http://www.w3.org/Graphics/SVG/1.1/DTD/svg11.dtd">
<!-- Generated by graphviz version 2.26.3 (20100126.1600)
 -->
<!-- Title: _anonymous_0 Pages: 1 -->
<svg width="1022pt" height="170pt"
 viewBox="0.00 0.00 1022.00 170.00" xmlns="http://www.w3.org/2000/svg" xmlns:xlink="http://www.w3.org/1999/xlink">
<g id="graph1" class="graph" transform="scale(1 1) rotate(0) translate(4 166)">
<title>_anonymous_0</title>
<polygon fill="white" stroke="white" points="-4,5 -4,-166 1019,-166 1019,5 -4,5"/>
<g id="graph2" class="cluster"><title>cluster_client</title>
<polygon fill="none" stroke="black" points="8,-16 8,-120 548,-120 548,-16 8,-16"/>
<text text-anchor="middle" x="278" y="-103.4" font-family="Times Roman,serif" font-size="14.00">Client</text>
</g>
<g id="graph3" class="cluster"><title>cluster_remote_host</title>
<polygon fill="none" stroke="black" points="570,-8 570,-154 1006,-154 1006,-8 570,-8"/>
<text text-anchor="middle" x="788" y="-137.4" font-family="Times Roman,serif" font-size="14.00">Remote Host</text>
</g>
<g id="graph4" class="cluster"><title>cluster_python</title>
<polygon fill="none" stroke="black" stroke-dasharray="1,5" points="674,-16 674,-120 998,-120 998,-16 674,-16"/>
<text text-anchor="middle" x="836" y="-103.4" font-family="Times Roman,serif" font-size="14.00">Python</text>
</g>
<!-- socat_client -->
<g id="node2" class="node"><title>socat_client</title>
<ellipse fill="none" stroke="black" cx="358" cy="-55" rx="36.977" ry="18.3848"/>
<text text-anchor="middle" x="358" y="-51.4" font-family="Times Roman,serif" font-size="14.00">socat</text>
</g>
<!-- ssh host -->
<g id="node6" class="node"><title>ssh host</title>
<ellipse fill="none" stroke="black" cx="487" cy="-55" rx="51.8276" ry="18.3848"/>
<text text-anchor="middle" x="487" y="-51.4" font-family="Times Roman,serif" font-size="14.00">ssh host</text>
</g>
<!-- socat_client&#45;&gt;ssh host -->
<g id="edge5" class="edge"><title>socat_client&#45;&gt;ssh host</title>
<path fill="none" stroke="black" d="M405.838,-55C411.758,-55 417.878,-55 423.98,-55"/>
<polygon fill="black" stroke="black" points="405.659,-51.5001 395.659,-55 405.659,-58.5001 405.659,-51.5001"/>
<polygon fill="black" stroke="black" points="424.195,-58.5001 434.195,-55 424.195,-51.5001 424.195,-58.5001"/>
</g>
<!-- Node\ncp&#45;remote -->
<g id="node3" class="node"><title>Node\ncp&#45;remote</title>
<ellipse fill="none" stroke="black" cx="77" cy="-55" rx="60.8112" ry="31.1127"/>
<text text-anchor="middle" x="77" y="-60.4" font-family="Times Roman,serif" font-size="14.00">Node</text>
<text text-anchor="middle" x="77" y="-42.4" font-family="Times Roman,serif" font-size="14.00">cp&#45;remote</text>
</g>
<!-- Node\ncp&#45;remote&#45;&gt;socat_client -->
<g id="edge3" class="edge"><title>Node\ncp&#45;remote&#45;&gt;socat_client</title>
<path fill="none" stroke="black" d="M148.636,-55C199.194,-55 265.558,-55 309.885,-55"/>
<polygon fill="black" stroke="black" points="148.319,-51.5001 138.319,-55 148.319,-58.5001 148.319,-51.5001"/>
<polygon fill="black" stroke="black" points="310.101,-58.5001 320.101,-55 310.101,-51.5001 310.101,-58.5001"/>
<text text-anchor="middle" x="229" y="-60.4" font-family="Times Roman,serif" font-size="14.00">NODE_CHANNEL_FD</text>
</g>
<!-- sshd -->
<g id="node12" class="node"><title>sshd</title>
<ellipse fill="none" stroke="black" cx="611" cy="-55" rx="33.234" ry="18.3848"/>
<text text-anchor="middle" x="611" y="-51.4" font-family="Times Roman,serif" font-size="14.00">sshd</text>
</g>
<!-- ssh host&#45;&gt;sshd -->
<g id="edge13" class="edge"><title>ssh host&#45;&gt;sshd</title>
<path fill="none" stroke="black" d="M549.665,-55C555.729,-55 561.784,-55 567.599,-55"/>
<polygon fill="black" stroke="black" points="549.587,-51.5001 539.587,-55 549.587,-58.5001 549.587,-51.5001"/>
<polygon fill="black" stroke="black" points="567.755,-58.5001 577.755,-55 567.755,-51.5001 567.755,-58.5001"/>
</g>
<!-- socat_remote -->
<g id="node9" class="node"><title>socat_remote</title>
<ellipse fill="none" stroke="black" cx="720" cy="-55" rx="36.977" ry="18.3848"/>
<text text-anchor="middle" x="720" y="-51.4" font-family="Times Roman,serif" font-size="14.00">socat</text>
</g>
<!-- Node\nsub.js -->
<g id="node11" class="node"><title>Node\nsub.js</title>
<ellipse fill="none" stroke="black" cx="950" cy="-55" rx="39.0967" ry="31.1127"/>
<text text-anchor="middle" x="950" y="-60.4" font-family="Times Roman,serif" font-size="14.00">Node</text>
<text text-anchor="middle" x="950" y="-42.4" font-family="Times Roman,serif" font-size="14.00">sub.js</text>
</g>
<!-- socat_remote&#45;&gt;Node\nsub.js -->
<g id="edge9" class="edge"><title>socat_remote&#45;&gt;Node\nsub.js</title>
<path fill="none" stroke="black" d="M767.757,-55C806.489,-55 860.909,-55 900.183,-55"/>
<polygon fill="black" stroke="black" points="767.722,-51.5001 757.722,-55 767.722,-58.5001 767.722,-51.5001"/>
<polygon fill="black" stroke="black" points="900.328,-58.5001 910.328,-55 900.328,-51.5001 900.328,-58.5001"/>
<text text-anchor="middle" x="834" y="-60.4" font-family="Times Roman,serif" font-size="14.00"> &#160;&#160;&#160;&#160;socketpair &#160;&#160;&#160;&#160;</text>
<text text-anchor="middle" x="831.543" y="-37.5081" font-family="Times Roman,serif" font-size="14.00">NODE_CHANNEL_FD</text>
</g>
<!-- sshd&#45;&gt;socat_remote -->
<g id="edge11" class="edge"><title>sshd&#45;&gt;socat_remote</title>
<path fill="none" stroke="black" d="M654.463,-55C660.227,-55 666.164,-55 671.999,-55"/>
<polygon fill="black" stroke="black" points="654.296,-51.5001 644.296,-55 654.296,-58.5001 654.296,-51.5001"/>
<polygon fill="black" stroke="black" points="672.336,-58.5001 682.336,-55 672.336,-51.5001 672.336,-58.5001"/>
</g>
</g>
</svg>
