<?xml version="1.0" encoding="UTF-8" standalone="no"?>
<!DOCTYPE svg PUBLIC "-//W3C//DTD SVG 1.1//EN"
 "http://www.w3.org/Graphics/SVG/1.1/DTD/svg11.dtd">
<!-- Generated by graphviz version 2.38.0 (20140413.2041)
 -->
<!-- Title: %3 Pages: 1 -->
<svg width="874pt" height="156pt"
 viewBox="0.00 0.00 874.09 156.00" xmlns="http://www.w3.org/2000/svg" xmlns:xlink="http://www.w3.org/1999/xlink">
<g id="graph0" class="graph" transform="scale(1 1) rotate(0) translate(4 152)">
<title>%3</title>
<polygon fill="white" stroke="none" points="-4,4 -4,-152 870.089,-152 870.089,4 -4,4"/>
<g id="clust1" class="cluster"><title>cluster_client</title>
<polygon fill="none" stroke="black" points="8,-16 8,-109 467.011,-109 467.011,-16 8,-16"/>
<text text-anchor="middle" x="237.506" y="-93.8" font-family="Times,serif" font-size="14.00">Client</text>
</g>
<g id="clust2" class="cluster"><title>cluster_remote_host</title>
<polygon fill="none" stroke="black" points="488.011,-8 488.011,-140 858.089,-140 858.089,-8 488.011,-8"/>
<text text-anchor="middle" x="673.05" y="-124.8" font-family="Times,serif" font-size="14.00">Remote Host</text>
</g>
<g id="clust3" class="cluster"><title>cluster_python</title>
<polygon fill="none" stroke="black" stroke-dasharray="1,5" points="579.011,-16 579.011,-109 850.089,-109 850.089,-16 579.011,-16"/>
<text text-anchor="middle" x="714.55" y="-93.8" font-family="Times,serif" font-size="14.00">Python</text>
</g>
<!-- socat_client -->
<g id="node1" class="node"><title>socat_client</title>
<ellipse fill="none" stroke="black" cx="315.421" cy="-51" rx="28.6953" ry="18"/>
<text text-anchor="middle" x="315.421" y="-47.3" font-family="Times,serif" font-size="14.00">socat</text>
</g>
<!-- ssh host -->
<g id="node3" class="node"><title>ssh host</title>
<ellipse fill="none" stroke="black" cx="420.015" cy="-51" rx="38.9931" ry="18"/>
<text text-anchor="middle" x="420.015" y="-47.3" font-family="Times,serif" font-size="14.00">ssh host</text>
</g>
<!-- socat_client&#45;&gt;ssh host -->
<g id="edge2" class="edge"><title>socat_client&#45;&gt;ssh host</title>
<path fill="none" stroke="black" d="M354.375,-51C359.637,-51 365.1,-51 370.52,-51"/>
<polygon fill="black" stroke="black" points="354.184,-47.5001 344.184,-51 354.184,-54.5001 354.184,-47.5001"/>
<polygon fill="black" stroke="black" points="370.83,-54.5001 380.83,-51 370.83,-47.5001 370.83,-54.5001"/>
</g>
<!-- Node\ncp&#45;remote -->
<g id="node2" class="node"><title>Node\ncp&#45;remote</title>
<ellipse fill="none" stroke="black" cx="66.9117" cy="-51" rx="50.8235" ry="26.7407"/>
<text text-anchor="middle" x="66.9117" y="-54.8" font-family="Times,serif" font-size="14.00">Node</text>
<text text-anchor="middle" x="66.9117" y="-39.8" font-family="Times,serif" font-size="14.00">cp&#45;remote</text>
</g>
<!-- Node\ncp&#45;remote&#45;&gt;socat_client -->
<g id="edge1" class="edge"><title>Node\ncp&#45;remote&#45;&gt;socat_client</title>
<path fill="none" stroke="black" d="M128.227,-51C174.521,-51 237.006,-51 276.512,-51"/>
<polygon fill="black" stroke="black" points="128.094,-47.5001 118.094,-51 128.094,-54.5001 128.094,-47.5001"/>
<polygon fill="black" stroke="black" points="276.525,-54.5001 286.525,-51 276.525,-47.5001 276.525,-54.5001"/>
<text text-anchor="middle" x="202.323" y="-54.8" font-family="Times,serif" font-size="14.00">NODE_CHANNEL_FD</text>
</g>
<!-- sshd -->
<g id="node6" class="node"><title>sshd</title>
<ellipse fill="none" stroke="black" cx="523.011" cy="-51" rx="27" ry="18"/>
<text text-anchor="middle" x="523.011" y="-47.3" font-family="Times,serif" font-size="14.00">sshd</text>
</g>
<!-- ssh host&#45;&gt;sshd -->
<g id="edge5" class="edge"><title>ssh host&#45;&gt;sshd</title>
<path fill="none" stroke="black" d="M469.352,-51C474.746,-51 480.174,-51 485.387,-51"/>
<polygon fill="black" stroke="black" points="469.197,-47.5001 459.197,-51 469.197,-54.5001 469.197,-47.5001"/>
<polygon fill="black" stroke="black" points="485.709,-54.5001 495.709,-51 485.708,-47.5001 485.709,-54.5001"/>
</g>
<!-- socat_remote -->
<g id="node4" class="node"><title>socat_remote</title>
<ellipse fill="none" stroke="black" cx="615.609" cy="-51" rx="28.6953" ry="18"/>
<text text-anchor="middle" x="615.609" y="-47.3" font-family="Times,serif" font-size="14.00">socat</text>
</g>
<!-- Node\nsub.js -->
<g id="node5" class="node"><title>Node\nsub.js</title>
<ellipse fill="none" stroke="black" cx="808.147" cy="-51" rx="33.8824" ry="26.7407"/>
<text text-anchor="middle" x="808.147" y="-54.8" font-family="Times,serif" font-size="14.00">Node</text>
<text text-anchor="middle" x="808.147" y="-39.8" font-family="Times,serif" font-size="14.00">sub.js</text>
</g>
<!-- socat_remote&#45;&gt;Node\nsub.js -->
<g id="edge3" class="edge"><title>socat_remote&#45;&gt;Node\nsub.js</title>
<path fill="none" stroke="black" d="M654.581,-51C686.063,-51 730.826,-51 763.726,-51"/>
<polygon fill="black" stroke="black" points="654.315,-47.5001 644.315,-51 654.315,-54.5001 654.315,-47.5001"/>
<polygon fill="black" stroke="black" points="763.959,-54.5001 773.959,-51 763.959,-47.5001 763.959,-54.5001"/>
<text text-anchor="middle" x="709.206" y="-54.8" font-family="Times,serif" font-size="14.00"> &#160;&#160;&#160;&#160;socketpair &#160;&#160;&#160;&#160;</text>
<text text-anchor="middle" x="695.174" y="-33.4081" font-family="Times,serif" font-size="14.00">NODE_CHANNEL_FD</text>
</g>
<!-- sshd&#45;&gt;socat_remote -->
<g id="edge4" class="edge"><title>sshd&#45;&gt;socat_remote</title>
<path fill="none" stroke="black" d="M560.308,-51C565.705,-51 571.28,-51 576.709,-51"/>
<polygon fill="black" stroke="black" points="560.216,-47.5001 550.216,-51 560.216,-54.5001 560.216,-47.5001"/>
<polygon fill="black" stroke="black" points="576.884,-54.5001 586.884,-51 576.884,-47.5001 576.884,-54.5001"/>
</g>
</g>
</svg>
